<svg xmlns="http://www.w3.org/2000/svg" width="1303" height="1207" viewBox="0 0 1303 1207">
<g fill="black">
<path d="M 741,1083 L 740,1084 L 612,1084 L 611,1085 L 610,1084 L 609,1085 L 608,1085 L 607,1084 L 597,1084 L 596,1085 L 586,1085 L 587,1086 L 677,1086 L 678,1087 L 768,1087 L 769,1088 L 771,1088 L 772,1087 L 868,1087 L 869,1086 L 938,1086 L 939,1085 L 989,1085 L 990,1084 L 949,1084 L 948,1083 Z"/>
<path d="M 338,73 L 337,74 L 334,74 L 333,75 L 331,75 L 330,76 L 329,76 L 328,77 L 327,77 L 326,78 L 325,78 L 324,79 L 323,79 L 321,81 L 320,81 L 315,86 L 315,87 L 313,89 L 313,90 L 312,91 L 312,92 L 311,93 L 311,96 L 310,97 L 310,109 L 311,110 L 311,112 L 312,113 L 312,114 L 313,115 L 313,116 L 314,117 L 314,118 L 316,120 L 316,121 L 320,125 L 321,125 L 323,127 L 324,127 L 325,128 L 326,128 L 327,129 L 328,129 L 329,130 L 330,130 L 333,133 L 333,135 L 334,136 L 334,143 L 333,144 L 333,147 L 332,148 L 332,150 L 331,151 L 331,152 L 330,153 L 330,154 L 329,155 L 329,156 L 328,157 L 328,158 L 326,160 L 326,161 L 323,164 L 322,164 L 320,166 L 319,166 L 318,167 L 316,167 L 315,168 L 313,168 L 312,169 L 310,169 L 309,170 L 307,170 L 306,171 L 304,171 L 303,172 L 301,172 L 300,173 L 299,173 L 298,174 L 297,174 L 296,175 L 294,175 L 292,177 L 291,177 L 289,179 L 288,179 L 287,180 L 287,181 L 285,183 L 285,191 L 286,192 L 286,193 L 291,198 L 292,198 L 294,200 L 294,201 L 295,202 L 295,205 L 296,206 L 296,212 L 295,213 L 295,215 L 294,216 L 294,218 L 293,219 L 293,220 L 291,222 L 291,223 L 288,226 L 287,226 L 286,227 L 285,227 L 284,228 L 283,228 L 282,229 L 280,229 L 279,230 L 277,230 L 276,231 L 273,231 L 272,232 L 270,232 L 269,233 L 266,233 L 265,234 L 263,234 L 262,235 L 260,235 L 259,236 L 257,236 L 256,237 L 255,237 L 254,238 L 253,238 L 252,239 L 251,239 L 250,240 L 249,240 L 246,243 L 245,243 L 244,244 L 244,245 L 242,247 L 242,248 L 241,249 L 241,250 L 240,251 L 240,261 L 241,262 L 241,263 L 242,264 L 242,265 L 243,266 L 243,267 L 245,269 L 245,270 L 246,271 L 246,272 L 244,274 L 243,274 L 242,275 L 241,275 L 240,276 L 239,276 L 238,277 L 237,277 L 236,278 L 235,278 L 234,279 L 233,279 L 232,280 L 231,280 L 230,281 L 229,281 L 228,282 L 227,282 L 226,283 L 225,283 L 224,284 L 223,284 L 222,285 L 221,285 L 220,286 L 219,286 L 218,287 L 217,287 L 215,289 L 214,289 L 213,290 L 212,290 L 211,291 L 210,291 L 209,292 L 208,292 L 206,294 L 205,294 L 204,295 L 203,295 L 201,297 L 200,297 L 198,299 L 197,299 L 193,303 L 192,303 L 185,310 L 185,311 L 181,315 L 181,316 L 179,318 L 179,319 L 178,320 L 178,321 L 177,322 L 177,323 L 176,324 L 176,325 L 175,326 L 175,327 L 174,328 L 174,329 L 173,330 L 173,332 L 172,333 L 172,336 L 171,337 L 171,343 L 170,344 L 170,352 L 171,353 L 171,360 L 172,361 L 172,364 L 173,365 L 173,367 L 174,368 L 174,369 L 175,370 L 175,371 L 176,372 L 176,373 L 177,374 L 177,375 L 178,376 L 178,378 L 179,379 L 179,380 L 180,381 L 180,382 L 181,383 L 181,385 L 182,386 L 182,387 L 183,388 L 183,389 L 184,390 L 184,391 L 185,392 L 185,394 L 186,395 L 186,396 L 187,397 L 187,399 L 188,400 L 188,401 L 189,402 L 189,403 L 190,404 L 190,406 L 191,407 L 191,409 L 192,410 L 192,411 L 193,412 L 193,414 L 194,415 L 194,416 L 195,417 L 195,419 L 196,420 L 196,422 L 197,423 L 197,425 L 198,426 L 198,428 L 199,429 L 199,430 L 200,431 L 200,433 L 201,434 L 201,436 L 202,437 L 202,439 L 203,440 L 203,443 L 204,444 L 204,446 L 205,447 L 205,449 L 206,450 L 206,452 L 207,453 L 207,456 L 208,457 L 208,460 L 209,461 L 209,464 L 210,465 L 210,468 L 211,469 L 211,472 L 212,473 L 212,476 L 213,477 L 213,481 L 214,482 L 214,486 L 215,487 L 215,490 L 216,491 L 216,495 L 217,496 L 217,500 L 218,501 L 218,504 L 219,505 L 219,509 L 220,510 L 220,513 L 221,514 L 221,517 L 222,518 L 222,521 L 223,522 L 223,524 L 224,525 L 224,528 L 225,529 L 225,532 L 226,533 L 226,535 L 227,536 L 227,539 L 228,540 L 228,542 L 229,543 L 229,545 L 230,546 L 230,548 L 231,549 L 231,552 L 232,553 L 232,555 L 233,556 L 233,559 L 234,560 L 234,562 L 235,563 L 235,565 L 236,566 L 236,568 L 237,569 L 237,571 L 238,572 L 238,574 L 239,575 L 239,577 L 240,578 L 240,580 L 241,581 L 241,583 L 242,584 L 242,586 L 243,587 L 243,589 L 244,590 L 244,592 L 245,593 L 245,594 L 246,595 L 246,597 L 247,598 L 247,600 L 248,601 L 248,603 L 249,604 L 249,605 L 250,606 L 250,608 L 251,609 L 251,611 L 252,612 L 252,613 L 253,614 L 253,616 L 254,617 L 254,618 L 255,619 L 255,621 L 256,622 L 256,623 L 257,624 L 257,626 L 258,627 L 258,628 L 259,629 L 259,631 L 260,632 L 260,633 L 261,634 L 261,635 L 262,636 L 262,638 L 263,639 L 263,640 L 264,641 L 264,642 L 265,643 L 265,645 L 266,646 L 266,647 L 267,648 L 267,649 L 268,650 L 268,652 L 269,653 L 269,654 L 270,655 L 270,656 L 271,657 L 271,658 L 272,659 L 272,660 L 273,661 L 273,663 L 274,664 L 274,665 L 275,666 L 275,667 L 276,668 L 276,669 L 277,670 L 277,671 L 278,672 L 278,673 L 279,674 L 279,675 L 280,676 L 280,677 L 281,678 L 281,679 L 282,680 L 282,682 L 283,683 L 283,684 L 284,685 L 284,686 L 285,687 L 285,688 L 286,689 L 286,690 L 287,691 L 287,692 L 288,693 L 288,694 L 289,695 L 289,696 L 290,697 L 290,698 L 292,700 L 292,701 L 293,702 L 293,703 L 294,704 L 294,705 L 295,706 L 295,707 L 296,708 L 296,709 L 297,710 L 297,711 L 299,713 L 299,714 L 300,715 L 300,716 L 301,717 L 301,718 L 302,719 L 302,720 L 303,721 L 303,722 L 305,724 L 305,725 L 306,726 L 306,727 L 308,729 L 308,730 L 309,731 L 309,732 L 311,734 L 311,735 L 312,736 L 312,737 L 314,739 L 314,740 L 315,741 L 315,742 L 317,744 L 317,745 L 318,746 L 318,747 L 320,749 L 320,750 L 322,752 L 322,753 L 324,755 L 324,756 L 326,758 L 326,759 L 327,760 L 327,761 L 329,763 L 329,764 L 331,766 L 331,767 L 333,769 L 333,770 L 336,773 L 336,774 L 338,776 L 338,777 L 340,779 L 340,780 L 343,783 L 343,784 L 345,786 L 345,787 L 348,790 L 348,791 L 351,794 L 351,795 L 354,798 L 354,799 L 358,803 L 358,804 L 362,808 L 362,809 L 364,811 L 364,812 L 367,815 L 367,816 L 371,820 L 371,821 L 374,824 L 374,825 L 377,828 L 377,829 L 380,832 L 380,833 L 384,837 L 384,838 L 387,841 L 387,842 L 392,847 L 392,848 L 397,853 L 397,854 L 404,861 L 404,862 L 415,873 L 415,874 L 435,894 L 436,894 L 447,905 L 448,905 L 455,912 L 456,912 L 461,917 L 462,917 L 466,921 L 467,921 L 472,926 L 473,926 L 477,930 L 478,930 L 481,933 L 482,933 L 485,936 L 486,936 L 489,939 L 490,939 L 493,942 L 494,942 L 497,945 L 498,945 L 500,947 L 501,947 L 503,949 L 504,949 L 506,951 L 507,951 L 509,953 L 510,953 L 512,955 L 513,955 L 515,957 L 516,957 L 518,959 L 519,959 L 521,961 L 522,961 L 524,963 L 525,963 L 526,964 L 527,964 L 529,966 L 530,966 L 531,967 L 532,967 L 534,969 L 535,969 L 536,970 L 537,970 L 539,972 L 540,972 L 541,973 L 542,973 L 543,974 L 544,974 L 546,976 L 547,976 L 548,977 L 549,977 L 550,978 L 551,978 L 553,980 L 554,980 L 555,981 L 556,981 L 557,982 L 558,982 L 559,983 L 560,983 L 561,984 L 562,984 L 563,985 L 564,985 L 566,987 L 567,987 L 568,988 L 570,988 L 572,990 L 573,990 L 574,991 L 576,991 L 577,992 L 578,992 L 579,993 L 580,993 L 581,994 L 582,994 L 583,995 L 584,995 L 585,996 L 586,996 L 587,997 L 588,997 L 589,998 L 590,998 L 591,999 L 592,999 L 593,1000 L 595,1000 L 596,1001 L 597,1001 L 598,1002 L 599,1002 L 600,1003 L 601,1003 L 602,1004 L 604,1004 L 605,1005 L 606,1005 L 607,1006 L 608,1006 L 609,1007 L 611,1007 L 612,1008 L 613,1008 L 614,1009 L 615,1009 L 616,1010 L 618,1010 L 619,1011 L 620,1011 L 621,1012 L 622,1012 L 623,1013 L 625,1013 L 626,1014 L 628,1014 L 629,1015 L 630,1015 L 631,1016 L 633,1016 L 634,1017 L 635,1017 L 636,1018 L 638,1018 L 639,1019 L 641,1019 L 642,1020 L 643,1020 L 644,1021 L 646,1021 L 647,1022 L 649,1022 L 650,1023 L 651,1023 L 652,1024 L 654,1024 L 655,1025 L 657,1025 L 658,1026 L 660,1026 L 661,1027 L 662,1027 L 663,1028 L 665,1028 L 666,1029 L 668,1029 L 669,1030 L 672,1030 L 673,1031 L 674,1031 L 675,1032 L 678,1032 L 679,1033 L 681,1033 L 682,1034 L 684,1034 L 685,1035 L 687,1035 L 688,1036 L 690,1036 L 691,1037 L 694,1037 L 695,1038 L 697,1038 L 698,1039 L 701,1039 L 702,1040 L 705,1040 L 706,1041 L 708,1041 L 709,1042 L 711,1042 L 712,1043 L 715,1043 L 716,1044 L 718,1044 L 719,1045 L 722,1045 L 723,1046 L 726,1046 L 727,1047 L 730,1047 L 731,1048 L 735,1048 L 736,1049 L 738,1049 L 739,1050 L 738,1051 L 570,1051 L 569,1052 L 471,1052 L 470,1053 L 458,1053 L 457,1052 L 444,1052 L 443,1053 L 323,1053 L 322,1054 L 283,1054 L 282,1055 L 297,1055 L 298,1056 L 333,1056 L 334,1057 L 337,1057 L 338,1056 L 339,1057 L 451,1057 L 452,1058 L 551,1058 L 552,1059 L 648,1059 L 649,1060 L 648,1061 L 620,1061 L 619,1062 L 617,1062 L 616,1061 L 572,1061 L 571,1062 L 426,1062 L 425,1063 L 319,1063 L 318,1064 L 316,1064 L 315,1063 L 248,1063 L 247,1064 L 235,1064 L 235,1065 L 246,1065 L 247,1066 L 300,1066 L 301,1065 L 351,1065 L 352,1066 L 420,1066 L 421,1067 L 482,1067 L 483,1068 L 592,1068 L 593,1069 L 598,1069 L 599,1068 L 603,1068 L 604,1069 L 656,1069 L 657,1070 L 735,1070 L 736,1071 L 735,1072 L 615,1072 L 614,1073 L 580,1073 L 579,1072 L 578,1073 L 574,1073 L 573,1072 L 563,1072 L 562,1073 L 339,1073 L 338,1074 L 280,1074 L 279,1075 L 274,1075 L 275,1076 L 307,1076 L 308,1077 L 402,1077 L 403,1078 L 483,1078 L 484,1079 L 604,1079 L 605,1080 L 612,1080 L 613,1079 L 675,1079 L 676,1080 L 684,1080 L 685,1079 L 688,1079 L 689,1080 L 695,1080 L 696,1079 L 717,1079 L 718,1080 L 729,1080 L 730,1079 L 752,1079 L 753,1080 L 759,1080 L 760,1079 L 768,1079 L 769,1080 L 781,1080 L 782,1079 L 783,1080 L 784,1079 L 788,1079 L 789,1080 L 801,1080 L 802,1079 L 847,1079 L 848,1080 L 851,1080 L 852,1079 L 958,1079 L 959,1078 L 983,1078 L 982,1077 L 964,1077 L 963,1076 L 925,1076 L 924,1075 L 895,1075 L 894,1074 L 858,1074 L 857,1073 L 822,1073 L 821,1072 L 820,1072 L 819,1073 L 816,1073 L 815,1072 L 766,1072 L 765,1071 L 766,1070 L 902,1070 L 903,1069 L 1025,1069 L 1026,1068 L 1047,1068 L 1048,1067 L 1049,1068 L 1050,1067 L 1078,1067 L 1079,1066 L 1096,1066 L 1096,1065 L 1085,1065 L 1084,1064 L 1048,1064 L 1047,1063 L 1017,1063 L 1016,1062 L 1009,1062 L 1008,1061 L 1009,1060 L 1016,1060 L 1017,1059 L 1022,1059 L 1023,1058 L 1035,1058 L 1036,1059 L 1052,1059 L 1053,1060 L 1054,1059 L 1064,1059 L 1065,1058 L 1069,1058 L 1070,1057 L 1072,1057 L 1073,1056 L 1076,1056 L 1077,1055 L 1079,1055 L 1080,1054 L 1081,1054 L 1082,1053 L 1084,1053 L 1085,1052 L 1087,1052 L 1088,1051 L 1090,1051 L 1091,1050 L 1093,1050 L 1094,1049 L 1096,1049 L 1097,1048 L 1100,1048 L 1101,1047 L 1105,1047 L 1106,1046 L 1110,1046 L 1111,1045 L 1121,1045 L 1122,1044 L 1129,1044 L 1130,1045 L 1132,1045 L 1134,1047 L 1134,1048 L 1135,1049 L 1136,1049 L 1137,1050 L 1138,1050 L 1139,1051 L 1144,1051 L 1145,1050 L 1147,1050 L 1152,1045 L 1153,1045 L 1154,1044 L 1155,1044 L 1156,1043 L 1158,1043 L 1159,1042 L 1161,1042 L 1162,1041 L 1166,1041 L 1167,1040 L 1171,1040 L 1172,1039 L 1176,1039 L 1177,1038 L 1183,1038 L 1184,1037 L 1191,1037 L 1192,1036 L 1199,1036 L 1200,1035 L 1206,1035 L 1207,1034 L 1209,1034 L 1210,1033 L 1211,1033 L 1215,1029 L 1215,1028 L 1216,1027 L 1216,1026 L 1217,1025 L 1217,1021 L 1218,1020 L 1218,1008 L 1217,1007 L 1217,1004 L 1216,1003 L 1216,1002 L 1215,1001 L 1215,1000 L 1213,998 L 1212,998 L 1211,997 L 1210,997 L 1209,996 L 1206,996 L 1205,995 L 1197,995 L 1196,996 L 1171,996 L 1170,995 L 1166,995 L 1165,994 L 1162,994 L 1161,993 L 1159,993 L 1158,992 L 1157,992 L 1156,991 L 1155,991 L 1152,988 L 1151,988 L 1149,986 L 1147,986 L 1146,985 L 1141,985 L 1140,986 L 1139,986 L 1138,987 L 1137,987 L 1137,988 L 1135,990 L 1135,991 L 1133,993 L 1128,993 L 1127,992 L 1125,992 L 1124,991 L 1122,991 L 1121,990 L 1119,990 L 1118,989 L 1116,989 L 1115,988 L 1114,988 L 1113,987 L 1111,987 L 1110,986 L 1108,986 L 1107,985 L 1104,985 L 1103,984 L 1100,984 L 1099,983 L 1095,983 L 1094,982 L 1087,982 L 1086,981 L 1075,981 L 1074,980 L 1067,980 L 1066,979 L 1061,979 L 1060,978 L 1060,977 L 1063,974 L 1063,973 L 1065,971 L 1065,970 L 1068,967 L 1068,966 L 1070,964 L 1070,963 L 1072,961 L 1072,960 L 1074,958 L 1074,957 L 1076,955 L 1076,954 L 1078,952 L 1078,951 L 1084,945 L 1084,944 L 1086,942 L 1086,941 L 1087,940 L 1087,939 L 1088,938 L 1088,930 L 1087,929 L 1087,928 L 1085,926 L 1084,926 L 1083,925 L 1082,925 L 1081,924 L 1078,924 L 1077,923 L 1070,923 L 1069,924 L 1066,924 L 1065,925 L 1063,925 L 1062,926 L 1061,926 L 1060,927 L 1058,927 L 1057,928 L 1056,928 L 1054,930 L 1053,930 L 1050,933 L 1049,933 L 1045,937 L 1045,938 L 1026,957 L 1026,958 L 1019,965 L 1019,966 L 1013,972 L 1011,972 L 1010,971 L 1006,971 L 1005,970 L 1001,970 L 1000,969 L 997,969 L 996,968 L 993,968 L 992,967 L 989,967 L 988,966 L 985,966 L 984,965 L 981,965 L 980,964 L 978,964 L 977,963 L 975,963 L 974,962 L 971,962 L 970,961 L 968,961 L 967,960 L 964,960 L 963,959 L 961,959 L 960,958 L 957,958 L 956,957 L 954,957 L 953,956 L 951,956 L 950,955 L 948,955 L 947,954 L 945,954 L 944,953 L 942,953 L 941,952 L 939,952 L 938,951 L 937,951 L 936,950 L 934,950 L 933,949 L 931,949 L 930,948 L 929,948 L 928,947 L 927,947 L 926,946 L 924,946 L 923,945 L 922,945 L 921,944 L 919,944 L 918,943 L 917,943 L 916,942 L 915,942 L 914,941 L 913,941 L 912,940 L 910,940 L 909,939 L 908,939 L 907,938 L 906,938 L 905,937 L 904,937 L 903,936 L 901,936 L 900,935 L 899,935 L 898,934 L 897,934 L 896,933 L 895,933 L 894,932 L 893,932 L 892,931 L 891,931 L 890,930 L 889,930 L 888,929 L 887,929 L 886,928 L 884,928 L 883,927 L 882,927 L 881,926 L 880,926 L 879,925 L 878,925 L 877,924 L 876,924 L 875,923 L 874,923 L 873,922 L 872,922 L 871,921 L 870,921 L 869,920 L 868,920 L 867,919 L 866,919 L 865,918 L 864,918 L 863,917 L 862,917 L 861,916 L 860,916 L 859,915 L 858,915 L 856,913 L 855,913 L 854,912 L 853,912 L 852,911 L 851,911 L 850,910 L 849,910 L 848,909 L 847,909 L 846,908 L 845,908 L 843,906 L 842,906 L 841,905 L 840,905 L 838,903 L 837,903 L 836,902 L 835,902 L 833,900 L 832,900 L 830,898 L 829,898 L 828,897 L 827,897 L 825,895 L 824,895 L 823,894 L 822,894 L 819,891 L 818,891 L 816,889 L 815,889 L 813,887 L 812,887 L 810,885 L 809,885 L 807,883 L 806,883 L 803,880 L 802,880 L 799,877 L 798,877 L 794,873 L 793,873 L 789,869 L 788,869 L 785,866 L 784,866 L 779,861 L 778,861 L 773,856 L 772,856 L 767,851 L 766,851 L 759,844 L 758,844 L 729,815 L 729,814 L 715,800 L 715,799 L 708,792 L 708,791 L 704,787 L 704,786 L 700,782 L 700,781 L 697,778 L 697,777 L 694,774 L 694,773 L 691,770 L 691,769 L 689,767 L 689,766 L 686,763 L 686,762 L 683,759 L 683,758 L 681,756 L 681,755 L 678,752 L 678,751 L 676,749 L 676,748 L 674,746 L 674,745 L 672,743 L 672,742 L 669,739 L 669,738 L 667,736 L 667,735 L 665,733 L 665,732 L 663,730 L 663,729 L 661,727 L 661,726 L 660,725 L 660,724 L 658,722 L 658,721 L 656,719 L 656,718 L 655,717 L 655,716 L 653,714 L 653,713 L 651,711 L 651,710 L 650,709 L 650,708 L 649,707 L 649,706 L 647,704 L 647,703 L 646,702 L 646,701 L 645,700 L 645,699 L 644,698 L 644,697 L 642,695 L 642,694 L 641,693 L 641,692 L 640,691 L 640,690 L 639,689 L 639,688 L 637,686 L 637,685 L 636,684 L 636,683 L 635,682 L 635,681 L 634,680 L 634,679 L 633,678 L 633,676 L 632,675 L 632,674 L 631,673 L 631,672 L 630,671 L 630,670 L 629,669 L 629,668 L 628,667 L 628,665 L 627,664 L 627,663 L 626,662 L 626,660 L 625,659 L 625,658 L 624,657 L 624,655 L 623,654 L 623,652 L 622,651 L 622,649 L 621,648 L 621,646 L 620,645 L 620,643 L 619,642 L 619,640 L 618,639 L 618,637 L 617,636 L 617,634 L 616,633 L 616,630 L 615,629 L 615,627 L 614,626 L 614,623 L 613,622 L 613,619 L 612,618 L 612,615 L 611,614 L 611,612 L 610,611 L 610,608 L 609,607 L 609,604 L 608,603 L 608,600 L 607,599 L 607,596 L 606,595 L 606,592 L 605,591 L 605,587 L 604,586 L 604,582 L 603,581 L 603,577 L 602,576 L 602,572 L 601,571 L 601,566 L 600,565 L 600,561 L 599,560 L 599,555 L 598,554 L 598,549 L 597,548 L 597,543 L 596,542 L 596,537 L 595,536 L 595,532 L 594,531 L 594,526 L 593,525 L 593,521 L 592,520 L 592,516 L 591,515 L 591,510 L 590,509 L 590,503 L 589,502 L 589,496 L 588,495 L 588,489 L 587,488 L 587,482 L 586,481 L 586,473 L 585,472 L 585,465 L 584,464 L 584,443 L 583,442 L 583,436 L 582,435 L 582,424 L 581,423 L 581,395 L 582,394 L 582,388 L 581,387 L 581,381 L 580,380 L 580,336 L 581,335 L 581,329 L 582,328 L 582,325 L 584,323 L 584,322 L 587,319 L 588,319 L 607,300 L 610,300 L 611,301 L 613,301 L 614,302 L 615,302 L 616,303 L 618,303 L 619,304 L 620,304 L 621,305 L 623,305 L 624,306 L 626,306 L 627,307 L 629,307 L 630,308 L 631,308 L 632,309 L 634,309 L 635,310 L 637,310 L 638,311 L 639,311 L 640,312 L 642,312 L 643,313 L 644,313 L 645,314 L 647,314 L 648,315 L 650,315 L 651,316 L 652,316 L 653,317 L 655,317 L 656,318 L 658,318 L 659,319 L 661,319 L 662,320 L 664,320 L 665,321 L 668,321 L 669,322 L 673,322 L 674,323 L 678,323 L 679,324 L 693,324 L 694,323 L 695,323 L 696,322 L 697,322 L 698,321 L 699,321 L 699,320 L 701,318 L 701,309 L 700,308 L 700,306 L 699,305 L 699,304 L 697,302 L 697,301 L 691,295 L 691,294 L 689,292 L 688,292 L 683,287 L 682,287 L 679,284 L 678,284 L 676,282 L 675,282 L 673,280 L 672,280 L 671,279 L 670,279 L 668,277 L 667,277 L 666,276 L 665,276 L 663,274 L 662,274 L 661,273 L 660,273 L 659,272 L 658,272 L 657,271 L 656,271 L 655,270 L 654,270 L 653,269 L 652,269 L 651,268 L 649,268 L 648,267 L 647,267 L 646,266 L 645,266 L 644,265 L 642,265 L 641,264 L 640,264 L 639,263 L 637,263 L 636,262 L 634,262 L 633,261 L 632,261 L 631,260 L 629,260 L 628,259 L 626,259 L 625,258 L 623,258 L 622,257 L 620,257 L 619,256 L 616,256 L 615,255 L 613,255 L 612,254 L 609,254 L 608,253 L 606,253 L 605,252 L 602,252 L 601,251 L 598,251 L 597,250 L 595,250 L 594,249 L 592,249 L 591,248 L 588,248 L 587,247 L 585,247 L 584,246 L 582,246 L 581,245 L 579,245 L 578,244 L 576,244 L 575,243 L 573,243 L 572,242 L 571,242 L 570,241 L 568,241 L 567,240 L 565,240 L 564,239 L 563,239 L 562,238 L 561,238 L 560,237 L 558,237 L 557,236 L 555,236 L 554,235 L 553,235 L 552,234 L 550,234 L 549,233 L 548,233 L 547,232 L 545,232 L 544,231 L 543,231 L 542,230 L 541,230 L 540,229 L 539,229 L 538,228 L 537,228 L 536,227 L 535,227 L 534,226 L 533,226 L 529,222 L 529,221 L 528,220 L 528,212 L 527,211 L 527,210 L 526,209 L 526,208 L 525,207 L 524,207 L 522,205 L 520,205 L 519,204 L 516,204 L 515,203 L 511,203 L 510,202 L 505,202 L 504,201 L 499,201 L 498,200 L 494,200 L 493,199 L 490,199 L 489,198 L 486,198 L 485,197 L 483,197 L 482,196 L 479,196 L 478,195 L 476,195 L 475,194 L 472,194 L 471,193 L 469,193 L 468,192 L 467,192 L 466,191 L 464,191 L 463,190 L 461,190 L 460,189 L 459,189 L 458,188 L 457,188 L 456,187 L 454,187 L 453,186 L 452,186 L 451,185 L 450,185 L 449,184 L 448,184 L 446,182 L 445,182 L 439,176 L 439,175 L 438,174 L 438,172 L 439,171 L 439,170 L 440,169 L 440,167 L 441,166 L 441,158 L 440,157 L 440,156 L 439,155 L 439,154 L 438,153 L 437,153 L 436,152 L 435,152 L 434,151 L 433,151 L 432,150 L 429,150 L 428,149 L 416,149 L 415,150 L 405,150 L 404,151 L 395,151 L 394,150 L 390,150 L 389,149 L 388,149 L 387,148 L 386,148 L 385,147 L 384,147 L 383,146 L 382,146 L 375,139 L 375,138 L 374,137 L 374,136 L 373,135 L 373,134 L 372,133 L 372,131 L 371,130 L 371,124 L 372,123 L 372,122 L 374,120 L 374,119 L 375,118 L 375,117 L 376,116 L 376,114 L 377,113 L 377,112 L 378,111 L 378,108 L 379,107 L 379,95 L 378,94 L 378,92 L 377,91 L 377,89 L 376,88 L 376,87 L 375,86 L 375,85 L 368,78 L 367,78 L 365,76 L 364,76 L 363,75 L 361,75 L 360,74 L 357,74 L 356,73 Z"/>
</g>
</svg>